<svg width="1641" height="593" xmlns="http://www.w3.org/2000/svg" xmlns:xlink="http://www.w3.org/1999/xlink" xml:space="preserve" overflow="hidden"><g transform="translate(-827 -1017)"><path d="M837.5 1281.5C837.5 1141.22 949.205 1027.5 1087 1027.5 1224.8 1027.5 1336.5 1141.22 1336.5 1281.5 1336.5 1421.78 1224.8 1535.5 1087 1535.5 949.205 1535.5 837.5 1421.78 837.5 1281.5Z" stroke="#45B0AB" stroke-width="20.625" stroke-miterlimit="8" fill="none" fill-rule="evenodd"/><path d="M939 1127 1233.2 1435.21" stroke="#45B0AB" stroke-width="2.29167" stroke-miterlimit="8" fill="none" fill-rule="evenodd"/><path d="M0 0 246.138 308.208" stroke="#45B0AB" stroke-width="2.29167" stroke-miterlimit="8" fill="none" fill-rule="evenodd" transform="matrix(-1 0 0 1 1209.14 1127)"/><text fill="#45B0AB" font-family="Yu Gothic Medium,Yu Gothic Medium_MSFontService,sans-serif" font-weight="500" font-size="128" transform="matrix(1 0 0 1 1045.4 1183)">S</text><text fill="#45B0AB" font-family="Yu Gothic Medium,Yu Gothic Medium_MSFontService,sans-serif" font-weight="500" font-size="128" transform="matrix(1 0 0 1 1173.82 1321)">G</text><text fill="#45B0AB" font-family="Yu Gothic Medium,Yu Gothic Medium_MSFontService,sans-serif" font-weight="500" font-size="128" transform="matrix(1 0 0 1 1043.9 1478)">U</text><text fill="#45B0AB" font-family="Yu Gothic Medium,Yu Gothic Medium_MSFontService,sans-serif" font-weight="500" font-size="128" transform="matrix(1 0 0 1 909.768 1321)">R</text><text fill="#45B0AB" font-family="Baguet Script,Baguet Script_MSFontService,sans-serif" font-weight="400" font-size="275" transform="matrix(1 0 0 1 1431.21 1368)">Kentaro</text></g></svg>